<svg xmlns="http://www.w3.org/2000/svg" width="202.919" height="50.531" viewBox="0 0 202.919 50.531">
  <g id="logo_2_" data-name="logo (2)" transform="translate(-42.086 -275.899)">
    <path id="Path_5" data-name="Path 5" d="M68.26,337.1h3.616v.192H71.7a1.273,1.273,0,0,0-.561.085.482.482,0,0,0-.217.235,2.517,2.517,0,0,0-.064.749v3.43a3.5,3.5,0,0,0,.142,1.245,1.192,1.192,0,0,0,.468.507,1.539,1.539,0,0,0,.822.2,1.765,1.765,0,0,0,.968-.255,1.567,1.567,0,0,0,.6-.7,4.274,4.274,0,0,0,.2-1.566v-2.856a1.653,1.653,0,0,0-.1-.671.593.593,0,0,0-.247-.28,1.477,1.477,0,0,0-.656-.118V337.1H75.47v.192h-.145a.94.94,0,0,0-.491.118.673.673,0,0,0-.283.357,1.808,1.808,0,0,0-.067.594v2.66a6.948,6.948,0,0,1-.163,1.782,1.979,1.979,0,0,1-.793,1.007,2.863,2.863,0,0,1-1.72.46,3.266,3.266,0,0,1-1.406-.243,2.066,2.066,0,0,1-.956-.847,2.937,2.937,0,0,1-.279-1.389v-3.43a2.435,2.435,0,0,0-.067-.752.5.5,0,0,0-.232-.235,1.405,1.405,0,0,0-.609-.082V337.1Z" transform="translate(-7.631 -17.844)"/>
    <path id="Path_6" data-name="Path 6" d="M89.455,336.016v2.469h-.191a3.143,3.143,0,0,0-1.039-1.539,2.441,2.441,0,0,0-1.513-.527,1.952,1.952,0,0,0-1.308.442,2.4,2.4,0,0,0-.739,1.231,6.139,6.139,0,0,0-.217,1.622,5.936,5.936,0,0,0,.238,1.766,2.01,2.01,0,0,0,.767,1.116,2.2,2.2,0,0,0,1.259.356,2.609,2.609,0,0,0,.519-.054,3.675,3.675,0,0,0,.546-.158v-1.457a1.562,1.562,0,0,0-.057-.535.529.529,0,0,0-.235-.22.879.879,0,0,0-.431-.1h-.181v-.191h3.4v.191a1.5,1.5,0,0,0-.54.106.529.529,0,0,0-.235.266,1.492,1.492,0,0,0-.045.481v1.457a6.932,6.932,0,0,1-1.4.453,7.329,7.329,0,0,1-1.505.152,4.382,4.382,0,0,1-1.656-.271,4.161,4.161,0,0,1-1.163-.713,3.378,3.378,0,0,1-.787-.995,3.481,3.481,0,0,1-.361-1.6,3.6,3.6,0,0,1,1.109-2.671,3.828,3.828,0,0,1,2.795-1.09,4.846,4.846,0,0,1,.939.083,4.723,4.723,0,0,1,.736.235,3.107,3.107,0,0,0,.6.193.4.4,0,0,0,.269-.106.94.94,0,0,0,.228-.4h.193Zm-1.8-2.092h.335a1.746,1.746,0,0,1-.5,1.194,1.451,1.451,0,0,1-2.118,0,1.769,1.769,0,0,1-.511-1.194h.34a.962.962,0,0,0,.405.49,1.532,1.532,0,0,0,.783.165,1.727,1.727,0,0,0,.847-.16A.984.984,0,0,0,87.658,333.924Z" transform="translate(-11.807 -16.917)"/>
    <path id="Path_7" data-name="Path 7" d="M97.23,337.1h3.616v.192h-.18a1.267,1.267,0,0,0-.56.085.479.479,0,0,0-.217.235,2.507,2.507,0,0,0-.065.749v3.43a3.462,3.462,0,0,0,.142,1.245,1.183,1.183,0,0,0,.468.507,1.533,1.533,0,0,0,.82.2,1.765,1.765,0,0,0,.968-.255,1.573,1.573,0,0,0,.6-.7,4.274,4.274,0,0,0,.2-1.566v-2.856a1.653,1.653,0,0,0-.1-.671.591.591,0,0,0-.248-.28,1.477,1.477,0,0,0-.656-.118V337.1h2.423v.192H104.3a.94.94,0,0,0-.491.118.673.673,0,0,0-.283.357,1.809,1.809,0,0,0-.067.594v2.66a6.947,6.947,0,0,1-.163,1.782,1.979,1.979,0,0,1-.793,1.007,2.863,2.863,0,0,1-1.72.46,3.266,3.266,0,0,1-1.406-.243,2.061,2.061,0,0,1-.955-.847,2.919,2.919,0,0,1-.28-1.389v-3.43a2.38,2.38,0,0,0-.068-.752.5.5,0,0,0-.232-.235,1.4,1.4,0,0,0-.609-.082V337.1Z" transform="translate(-16.077 -17.844)"/>
    <path id="Path_8" data-name="Path 8" d="M113.84,340.915v1.963a2.129,2.129,0,0,0,.071.716.5.5,0,0,0,.245.235,1.647,1.647,0,0,0,.656.088v.191h-3.585v-.191a1.607,1.607,0,0,0,.659-.091.534.534,0,0,0,.244-.235,2.174,2.174,0,0,0,.069-.713v-4.546a2.187,2.187,0,0,0-.069-.716.507.507,0,0,0-.247-.234,1.643,1.643,0,0,0-.656-.088V337.1h3.255a7.118,7.118,0,0,1,1.86.176,1.867,1.867,0,0,1,.96.648,1.733,1.733,0,0,1,.372,1.108,1.657,1.657,0,0,1-.558,1.282,2.318,2.318,0,0,1-1,.48l1.684,2.371a3.64,3.64,0,0,0,.469.574.884.884,0,0,0,.491.176v.191h-2.205l-2.259-3.192h-.459Zm0-3.435v3.069h.295a3.259,3.259,0,0,0,1.074-.133,1.075,1.075,0,0,0,.562-.475,1.747,1.747,0,0,0,.2-.9,1.361,1.361,0,0,0-1.58-1.566h-.554Z" transform="translate(-20.158 -17.844)"/>
    <path id="Path_9" data-name="Path 9" d="M131.779,341.649l-.263,2.459H125.3v-.191h.232a.977.977,0,0,0,.491-.108.475.475,0,0,0,.206-.248,2.147,2.147,0,0,0,.057-.651V338.3a2.315,2.315,0,0,0-.057-.672.52.52,0,0,0-.23-.235.926.926,0,0,0-.468-.1H125.3V337.1h3.734v.192h-.3a.977.977,0,0,0-.491.108.505.505,0,0,0-.212.249,2.14,2.14,0,0,0-.057.651v4.463a2.245,2.245,0,0,0,.062.684.412.412,0,0,0,.242.22,2.454,2.454,0,0,0,.626.047h.584a1.981,1.981,0,0,0,.929-.2,1.743,1.743,0,0,0,.643-.62,5.008,5.008,0,0,0,.514-1.25Z" transform="translate(-24.261 -17.844)"/>
    <path id="Path_10" data-name="Path 10" d="M142.7,342.054h-2.475l-.295.682a1.53,1.53,0,0,0-.144.563.468.468,0,0,0,.238.434,2.007,2.007,0,0,0,.686.124v.191h-2.33v-.191a1.047,1.047,0,0,0,.62-.312,4.129,4.129,0,0,0,.6-1.056l2.5-5.59h.1l2.526,5.744a3.478,3.478,0,0,0,.594,1.028.817.817,0,0,0,.5.186v.191h-3.388v-.191h.14a1.065,1.065,0,0,0,.575-.114.278.278,0,0,0,.113-.237.636.636,0,0,0-.032-.191c-.007-.031-.058-.161-.155-.388Zm-.176-.383-1.045-2.412-1.074,2.412Z" transform="translate(-28.076 -17.785)"/>
    <path id="Path_11" data-name="Path 11" d="M163.327,340.393a3.576,3.576,0,0,1,1.4.563,1.5,1.5,0,0,1,.58,1.22,1.614,1.614,0,0,1-.636,1.307,3.555,3.555,0,0,1-2.266.625h-3.56v-.191a1.607,1.607,0,0,0,.659-.091.528.528,0,0,0,.244-.235,2.174,2.174,0,0,0,.069-.713v-4.546a2.187,2.187,0,0,0-.069-.716.507.507,0,0,0-.247-.234,1.643,1.643,0,0,0-.656-.088V337.1H162.2a4.777,4.777,0,0,1,1.7.215,1.772,1.772,0,0,1,.79.64,1.591,1.591,0,0,1,.289.906,1.283,1.283,0,0,1-.367.9A2.632,2.632,0,0,1,163.327,340.393Zm-1.88.263V342.9l-.006.259a.5.5,0,0,0,.563.563,1.609,1.609,0,0,0,.762-.184,1.249,1.249,0,0,0,.534-.532,1.616,1.616,0,0,0,.187-.777,1.707,1.707,0,0,0-.228-.881,1.226,1.226,0,0,0-.624-.545A3.431,3.431,0,0,0,161.447,340.656Zm0-.4a2.671,2.671,0,0,0,1.082-.165,1.224,1.224,0,0,0,.534-.465,1.661,1.661,0,0,0,0-1.526,1.162,1.162,0,0,0-.524-.453,2.78,2.78,0,0,0-1.095-.149Z" transform="translate(-34.041 -17.844)"/>
    <path id="Path_12" data-name="Path 12" d="M183.762,340.915v1.963a2.129,2.129,0,0,0,.071.716.5.5,0,0,0,.245.235,1.648,1.648,0,0,0,.656.088v.191h-3.585v-.191a1.607,1.607,0,0,0,.659-.091.534.534,0,0,0,.244-.235,2.174,2.174,0,0,0,.069-.713v-4.546a2.187,2.187,0,0,0-.069-.716.507.507,0,0,0-.247-.234,1.643,1.643,0,0,0-.656-.088V337.1H184.4a7.117,7.117,0,0,1,1.86.176,1.867,1.867,0,0,1,.96.648,1.732,1.732,0,0,1,.372,1.108,1.657,1.657,0,0,1-.558,1.282,2.318,2.318,0,0,1-1,.48l1.684,2.371a3.639,3.639,0,0,0,.469.574.884.884,0,0,0,.491.176v.191H186.48l-2.259-3.192h-.459Zm0-3.435v3.069h.295a3.26,3.26,0,0,0,1.074-.133,1.075,1.075,0,0,0,.562-.475,1.747,1.747,0,0,0,.2-.9,1.361,1.361,0,0,0-1.58-1.566h-.554Z" transform="translate(-40.544 -17.844)"/>
    <path id="Path_13" data-name="Path 13" d="M201.7,341.649l-.264,2.459h-6.218v-.191h.232a.971.971,0,0,0,.49-.108.47.47,0,0,0,.208-.248,2.147,2.147,0,0,0,.057-.651V338.3a2.314,2.314,0,0,0-.057-.672.523.523,0,0,0-.231-.235.924.924,0,0,0-.466-.1h-.232V337.1h3.734v.192h-.3a.974.974,0,0,0-.491.108.491.491,0,0,0-.212.249,2.093,2.093,0,0,0-.057.651v4.463a2.244,2.244,0,0,0,.062.684.407.407,0,0,0,.242.22,2.447,2.447,0,0,0,.626.047h.584a1.988,1.988,0,0,0,.929-.2,1.73,1.73,0,0,0,.642-.62,5,5,0,0,0,.515-1.25Z" transform="translate(-44.647 -17.844)"/>
    <path id="Path_14" data-name="Path 14" d="M221.789,339.783l2.465,3.085a3.936,3.936,0,0,0,.9.883,1.1,1.1,0,0,0,.578.165v.191h-3.646v-.191a.972.972,0,0,0,.446-.108.232.232,0,0,0,.1-.191,1.885,1.885,0,0,0-.475-.816l-1.607-2.02-.259.217v1.911a2.149,2.149,0,0,0,.062.681.521.521,0,0,0,.238.23,1.236,1.236,0,0,0,.563.1v.191h-3.534v-.191h.232a.977.977,0,0,0,.491-.108.475.475,0,0,0,.206-.248,2.148,2.148,0,0,0,.057-.651V338.3a2.315,2.315,0,0,0-.057-.672.52.52,0,0,0-.23-.235.929.929,0,0,0-.468-.1h-.232V337.1h3.487v.192a1.135,1.135,0,0,0-.543.1.492.492,0,0,0-.212.243,2.022,2.022,0,0,0-.062.662v2.179l2.6-2.1q.542-.439.543-.7a.346.346,0,0,0-.222-.31,1.763,1.763,0,0,0-.563-.072V337.1h2.732v.192a1.527,1.527,0,0,0-.575.132,8.276,8.276,0,0,0-.963.716Z" transform="translate(-51.178 -17.844)"/>
    <path id="Path_15" data-name="Path 15" d="M232.381,344.107v-.191h.232a.931.931,0,0,0,.468-.1.6.6,0,0,0,.241-.261,2.524,2.524,0,0,0,.045-.651V338.3a2.316,2.316,0,0,0-.057-.672.52.52,0,0,0-.23-.235.929.929,0,0,0-.468-.1h-.232V337.1h3.136a5.036,5.036,0,0,1,2.02.341,2.992,2.992,0,0,1,1.418,1.265,4.03,4.03,0,0,1,.245,3.278,3.166,3.166,0,0,1-.614,1.028,3.022,3.022,0,0,1-.871.651,4.682,4.682,0,0,1-1.206.379,5.621,5.621,0,0,1-.992.062h-3.136Zm2.67-6.607v5.466a1.916,1.916,0,0,0,.042.532.292.292,0,0,0,.14.149.841.841,0,0,0,.4.077,1.561,1.561,0,0,0,1.317-.589,4,4,0,0,0,.62-2.469,4.643,4.643,0,0,0-.424-2.154,1.805,1.805,0,0,0-.864-.858A3.324,3.324,0,0,0,235.051,337.5Z" transform="translate(-55.481 -17.844)"/>
    <path id="Path_16" data-name="Path 16" d="M253.862,340.528a3.644,3.644,0,0,1-1,2.642,3.453,3.453,0,0,1-2.6,1.03,3.246,3.246,0,0,1-2.536-1.017,3.838,3.838,0,0,1-.894-2.666c0-.076.006-.176.016-.3h5.165a4.351,4.351,0,0,0-.439-1.947,1.7,1.7,0,0,0-1.6-.966,2.012,2.012,0,0,0-1.386.5,2.266,2.266,0,0,0-.721,1.322h-.187v-2.252h.187c.089.3.241.444.454.444a3.7,3.7,0,0,0,.788-.222,3.814,3.814,0,0,1,1.262-.222,3.273,3.273,0,0,1,2.5,1.049A3.664,3.664,0,0,1,253.862,340.528Zm-1.845.145H248.7a8.018,8.018,0,0,0,.176,2.025,1.358,1.358,0,0,0,1.374,1.115Q252.017,343.814,252.018,340.673Z" transform="translate(-59.696 -17.778)"/>
    <path id="Path_17" data-name="Path 17" d="M268.13,337.1v.192a1.033,1.033,0,0,0-.533.2,5.358,5.358,0,0,0-.815,1.183l-1.52,2.536v1.695a2.315,2.315,0,0,0,.057.674.521.521,0,0,0,.224.232.863.863,0,0,0,.447.1h.393v.191h-3.931v-.191h.367a.96.96,0,0,0,.491-.108.5.5,0,0,0,.212-.248,2.146,2.146,0,0,0,.057-.651v-1.4l-1.648-3a4.46,4.46,0,0,0-.692-1.046.867.867,0,0,0-.538-.162V337.1h3.358v.192h-.149a.758.758,0,0,0-.426.088.238.238,0,0,0-.122.186,3.111,3.111,0,0,0,.414.935l1.265,2.319,1.26-2.113a2.794,2.794,0,0,0,.47-1.027.273.273,0,0,0-.134-.232,1.278,1.278,0,0,0-.646-.155V337.1h2.14Z" transform="translate(-63.738 -17.844)"/>
    <path id="Path_18" data-name="Path 18" d="M278.6,343.068v.191h-3.663v-.191h.232a.977.977,0,0,0,.491-.108.468.468,0,0,0,.206-.248,2.1,2.1,0,0,0,.057-.651v-4.608a2.263,2.263,0,0,0-.057-.672.512.512,0,0,0-.23-.235.925.925,0,0,0-.468-.1h-.232v-.192H278.6v.192h-.232a.968.968,0,0,0-.49.108.5.5,0,0,0-.213.249,2.141,2.141,0,0,0-.057.651v4.608a2.221,2.221,0,0,0,.059.671.539.539,0,0,0,.232.235.928.928,0,0,0,.468.1Zm-1.833-8.875a.758.758,0,1,1-.537.222A.731.731,0,0,1,276.768,334.193Z" transform="translate(-67.889 -16.996)"/>
    <path id="Path_19" data-name="Path 19" d="M288.242,339.783l2.465,3.085a3.937,3.937,0,0,0,.9.883,1.1,1.1,0,0,0,.578.165v.191h-3.647v-.191a.98.98,0,0,0,.447-.108.232.232,0,0,0,.1-.191,1.894,1.894,0,0,0-.476-.816L287,340.781l-.257.217v1.911a2.212,2.212,0,0,0,.061.681.521.521,0,0,0,.238.23,1.239,1.239,0,0,0,.563.1v.191h-3.534v-.191h.232a.973.973,0,0,0,.491-.108.462.462,0,0,0,.206-.248,2.081,2.081,0,0,0,.058-.651V338.3a2.244,2.244,0,0,0-.058-.672.513.513,0,0,0-.23-.235.926.926,0,0,0-.468-.1h-.232V337.1h3.487v.192a1.139,1.139,0,0,0-.543.1.506.506,0,0,0-.212.243,2.081,2.081,0,0,0-.061.662v2.179l2.6-2.1c.363-.293.543-.527.543-.7a.346.346,0,0,0-.221-.31,1.771,1.771,0,0,0-.563-.072V337.1h2.732v.192a1.514,1.514,0,0,0-.575.132,8.369,8.369,0,0,0-.964.716Z" transform="translate(-70.553 -17.844)"/>
    <path id="Path_20" data-name="Path 20" d="M300.891,341.763h-.228a8.445,8.445,0,0,0-.237-1.426l-.268-1.126a7.173,7.173,0,0,1-.244-1.452.871.871,0,0,1,.238-.64.9.9,0,0,1,1.237,0,.844.844,0,0,1,.245.622,7.723,7.723,0,0,1-.257,1.467l-.274,1.126A9.247,9.247,0,0,0,300.891,341.763Zm-.109.739a.84.84,0,1,1-.837.842.821.821,0,0,1,.244-.594A.8.8,0,0,1,300.782,342.5Z" transform="translate(-75.171 -17.778)"/>
    <g id="Group_1" data-name="Group 1" transform="translate(42.086 275.899)">
      <path id="Shape" d="M64.748,279.489H42.086l11.4,11.929Z" transform="translate(-42.086 -276.946)" fill="#d51f28"/>
      <path id="Shape_1_" d="M68.5,299.693,57.239,311.62H79.9Z" transform="translate(-46.504 -282.836)" fill="#d51f28"/>
      <path id="Shape_2_" d="M67.2,279.489,42.086,305.73h8.279l25.118-26.241Z" transform="translate(-42.086 -276.946)" fill="#231f20"/>
      <path id="Shape_3_" d="M230.889,302.315a4.693,4.693,0,0,1-3.817,1.429,4.01,4.01,0,0,1-2.4-.572,1.8,1.8,0,0,1-.848-1.573v-8.283h2.969a5.509,5.509,0,0,1,3.958,1.286,4.253,4.253,0,0,1,1.414,3.428A6.445,6.445,0,0,1,230.889,302.315Zm-7.068-19.57h2.686a4.622,4.622,0,0,1,3.392,1.143,4.111,4.111,0,0,1,1.133,3,8.488,8.488,0,0,1-.283,2,3.409,3.409,0,0,1-.849,1.572,2.952,2.952,0,0,1-1.553,1,5.793,5.793,0,0,1-2.262.286h-2.12v-9h-.143Zm11.733,18.712a6.074,6.074,0,0,0,.708-2.856,5.117,5.117,0,0,0-.708-2.715,5.343,5.343,0,0,0-1.7-1.858,11.325,11.325,0,0,0-2.261-1.141,17.518,17.518,0,0,0-2.263-.572v-.142a12.166,12.166,0,0,0,2.12-.715,5.1,5.1,0,0,0,1.7-1.141,3.916,3.916,0,0,0,1.272-1.715,5.988,5.988,0,0,0,.422-2.285,4.406,4.406,0,0,0-.565-2.429,5.451,5.451,0,0,0-1.554-1.571,6.6,6.6,0,0,0-2.12-.858,12.368,12.368,0,0,0-2.4-.285H217.318v1.143a2.728,2.728,0,0,1,.989.143c.424.142.706.284,1.131.427a1.167,1.167,0,0,1,.707.716,2.132,2.132,0,0,1,.142,1v17a2.135,2.135,0,0,1-.142,1,1.423,1.423,0,0,1-.707.572,6.347,6.347,0,0,1-1.131.285,3.933,3.933,0,0,1-1.131.143v1.428h11.169a8.979,8.979,0,0,0,2.825-.429,13.862,13.862,0,0,0,2.545-1.142A8.3,8.3,0,0,0,235.553,301.457Z" transform="translate(-93.134 -277.437)" fill="#231f20"/>
      <path id="Shape_4_" d="M115.78,303.881a8.353,8.353,0,0,1-2.5-.288.789.789,0,0,1-.556-.861,11.078,11.078,0,0,1,2.083-3.162c1.389-1.868,2.5-3.449,3.61-4.742.694.862,1.25,1.868,1.945,2.73q1.04,1.509,1.666,2.586c.416.72.833,1.293,1.11,1.726a3.812,3.812,0,0,1,.417,1.006c0,.285-.278.574-.971.718a9.61,9.61,0,0,1-2.361.288v1.149H132.3v-1.149a4.631,4.631,0,0,1-1.25-.144,2.535,2.535,0,0,1-1.11-.288,3.2,3.2,0,0,1-1.111-1.006,11.593,11.593,0,0,1-1.25-1.435c-1.111-1.437-2.222-3.018-3.471-4.6-1.109-1.579-2.22-3.017-3.192-4.31,1.109-1.437,2.081-2.73,2.915-3.736.694-1.006,1.527-2.012,2.5-3.162.555-.575.972-1.151,1.249-1.436a6.064,6.064,0,0,1,1.389-.864,2.711,2.711,0,0,1,1.248-.288c.556,0,.834-.142,1.25-.142v-1.294H121.89v1.15a6.946,6.946,0,0,1,2.22.286.9.9,0,0,1,.694.864c0,.43-.554,1.294-1.526,2.73s-2.222,2.876-3.471,4.6c-.694-1.006-1.389-1.87-1.943-2.587a18.728,18.728,0,0,1-1.388-2.156c-.418-.574-.695-1.15-1.112-1.724a2.928,2.928,0,0,1-.416-1.15c0-.288.416-.575,1.109-.718a11.771,11.771,0,0,1,2.224-.288v-1.006H106.341v1.15a4.624,4.624,0,0,1,1.25.144,2.685,2.685,0,0,1,1.25.288,3.582,3.582,0,0,1,1.249.718,16.152,16.152,0,0,1,1.249,1.435c1.25,1.725,2.361,3.163,3.471,4.744,1.112,1.437,1.943,2.73,2.638,3.591-.971,1.151-1.943,2.586-3.192,4.024a42.588,42.588,0,0,0-2.917,3.737c-.416.429-.693.862-1.108,1.293a4.134,4.134,0,0,1-1.529,1.006,4,4,0,0,1-1.389.431c-.416,0-.832.144-1.249.144v1.149h9.58v-1.149h.136Z" transform="translate(-60.739 -277.438)" fill="#231f20"/>
      <path id="Shape_5_" d="M257.864,303.28a8.225,8.225,0,0,1-1.683,1.45,4.023,4.023,0,0,1-2.246.579,2.4,2.4,0,0,1-1.964-.724,2.47,2.47,0,0,1-.842-2.03,2.962,2.962,0,0,1,.563-1.883,4,4,0,0,1,1.4-1.3,13.912,13.912,0,0,1,2.105-1.016c.7-.29,1.683-.58,2.666-.87v5.8Zm6.315,3.188v-.87c-2.1,0-2.946-1.159-2.946-2.173v-8.262c0-1.159,0-4.493-3.928-5.362-.7-.145-4.211-.723-6.876,1.015a6.762,6.762,0,0,0-1.544,1.3,2.219,2.219,0,0,0-.563,1.594,1.775,1.775,0,0,0,1.824,1.884c2.667,0,2.246-2.174,2.1-2.609a4.66,4.66,0,0,1-.28-1.159,3.63,3.63,0,0,1,2.526-.871c2.807,0,3.367,2.175,3.367,3.625v1.739a17.586,17.586,0,0,1-3.367,1.159c-1.964.58-5.753,1.3-6.737,4.058a5.6,5.6,0,0,0-.281,1.74,4.5,4.5,0,0,0,1.265,3.044,5.021,5.021,0,0,0,3.367,1.159,7.458,7.458,0,0,0,5.753-2.465H258a3.227,3.227,0,0,0,1.124,1.884,3.46,3.46,0,0,0,2.244.58,4.21,4.21,0,0,0,1.4-.145C263.057,306.9,263.618,306.757,264.179,306.468Z" transform="translate(-101.969 -279.891)" fill="#231f20"/>
      <path id="Shape_6_" d="M156.9,303.39a8.19,8.19,0,0,1-1.668,1.463,3.936,3.936,0,0,1-2.227.582,2.351,2.351,0,0,1-1.948-.73,2.506,2.506,0,0,1-.835-2.045,3.045,3.045,0,0,1,.555-1.9,4.038,4.038,0,0,1,1.392-1.315,13.662,13.662,0,0,1,2.088-1.022c.834-.293,1.67-.584,2.642-.877v5.844Zm6.263,3.216v-.876c-2.087,0-2.923-1.169-2.923-2.193v-8.328c0-1.168,0-4.53-3.9-5.405-.7-.147-4.176-.731-6.818,1.021A6.794,6.794,0,0,0,148,292.139a2.266,2.266,0,0,0-.557,1.608,1.774,1.774,0,0,0,1.81,1.9,1.918,1.918,0,0,0,2.087-2.631,4.722,4.722,0,0,1-.278-1.168c0-.439.835-1.024,2.366-1.024,2.783,0,3.34,2.192,3.34,3.655v1.753a17.275,17.275,0,0,1-3.34,1.168c-1.949.585-5.705,1.315-6.679,4.092a5.655,5.655,0,0,0-.28,1.753,4.565,4.565,0,0,0,1.254,3.068,4.92,4.92,0,0,0,3.339,1.169A7.357,7.357,0,0,0,156.765,305h.137a3.283,3.283,0,0,0,1.114,1.9,3.4,3.4,0,0,0,2.226.585,4.1,4.1,0,0,0,1.391-.146A16.368,16.368,0,0,1,163.165,306.606Z" transform="translate(-72.518 -279.891)" fill="#231f20"/>
      <path id="Shape_7_" d="M173.581,281.741V301.13c0,1.459-1.5,1.75-2.589,1.75v1.166h8.587V302.88c-1.226,0-2.725-.29-2.725-1.75V278.1l-.275-.292-6.542.292v1.02C173.445,279.119,173.581,280.723,173.581,281.741Z" transform="translate(-79.391 -276.455)" fill="#231f20"/>
      <path id="Shape_8_" d="M317.344,299.369c-.552-.728-5.392-7.58-5.392-7.58l3.18-3.062s2.351-2.187,4.01-2.187v-1.166H312.09v1.166c1.381,0,1.8.438,1.934.728.278.73-.829,1.751-.829,1.751s-3.734,3.79-4.7,4.81V276.191l-.277-.292-6.637.292v1.166c3.458,0,3.595,1.6,3.595,2.623v19.242c0,1.459-1.52,1.749-2.626,1.749v1.168h8.712v-1.168c-1.245,0-2.629-.29-2.629-1.749v-4.228l1.384-1.311c.415.582,5.67,8.455,5.67,8.455h4.977v-1.168C318.45,300.972,317.758,300.1,317.344,299.369Z" transform="translate(-117.742 -275.899)" fill="#231f20"/>
      <path id="Shape_9_" d="M198.707,303.824a6.38,6.38,0,0,1-1.581,1.138,5.465,5.465,0,0,1-2.3.57,4.951,4.951,0,0,1-2.587-.57,4.566,4.566,0,0,1-1.726-1.566,7.182,7.182,0,0,1-1.006-2.135,12.584,12.584,0,0,1-.288-2.562c0-2.42.432-4.268,1.44-5.549a4.526,4.526,0,0,1,3.738-1.992,5.448,5.448,0,0,1,1.726.283,5.878,5.878,0,0,1,1.3.711q.43.428.862.854a1.556,1.556,0,0,1,.431.854v9.964Zm4.458,9.249a1.442,1.442,0,0,1-.721-.569,2.071,2.071,0,0,1-.287-1V295.854a24.714,24.714,0,0,1,.145-3.13,23.216,23.216,0,0,0,.142-2.989l-1.005-.142-1.581,2.135a8.637,8.637,0,0,0-.864-.569,4.321,4.321,0,0,0-1.151-.571c-.429-.142-1.006-.283-1.581-.426a9.619,9.619,0,0,0-2.157-.142,13.468,13.468,0,0,0-3.308.569,8.571,8.571,0,0,0-4.89,4.411,8.565,8.565,0,0,0-.718,3.415,10.62,10.62,0,0,0,.718,3.7,9.5,9.5,0,0,0,1.727,2.847,6.325,6.325,0,0,0,2.588,1.708,7.822,7.822,0,0,0,3.165.569,5.588,5.588,0,0,0,3.163-.711,3.152,3.152,0,0,0,1.151-.712c.43-.284.719-.426.862-.711h.144v6.546a2.053,2.053,0,0,1-.287,1,1.326,1.326,0,0,1-.864.569c-.287,0-.575.141-1.006.141a3.185,3.185,0,0,0-1.151.143v1.138h10.066V313.5c-.287,0-.718-.143-1.151-.143A3.4,3.4,0,0,1,203.164,313.074Z" transform="translate(-83.808 -279.892)" fill="#231f20"/>
      <path id="Shape_10_" d="M284.177,305.156v1.133h8.836v-1.133c-1.16,0-2.754-.282-2.754-1.7v-8.633a5.511,5.511,0,0,0-1.157-3.82c-.871-.99-1.884-1.415-3.911-1.415-2.9,0-5.359,2.548-5.648,2.829H279.4v-2.405l-.29-.284-6.371.424v.991c2.606,0,3.186,1.131,3.186,2.264V303.6c0,1.415-1.593,1.7-2.752,1.7v.989H282v-1.133c-1.158,0-2.607-.282-2.607-1.7v-9.481a4.863,4.863,0,0,1,4.2-2.407c1.594,0,3.043,1.134,3.043,3.681V303.6C286.783,304.874,285.48,305.156,284.177,305.156Z" transform="translate(-109.333 -279.891)" fill="#231f20"/>
    </g>
    <path id="Path_21" data-name="Path 21" d="M175.819,343.068v.191h-3.663v-.191h.232a.977.977,0,0,0,.491-.108.468.468,0,0,0,.206-.248,2.1,2.1,0,0,0,.057-.651v-4.608a2.263,2.263,0,0,0-.057-.672.512.512,0,0,0-.23-.235.925.925,0,0,0-.468-.1h-.232v-.192h3.663v.192h-.232a.968.968,0,0,0-.49.108.5.5,0,0,0-.213.249,2.141,2.141,0,0,0-.057.651v4.608a2.22,2.22,0,0,0,.06.671.539.539,0,0,0,.232.235.929.929,0,0,0,.468.1Zm-1.833-8.875a.758.758,0,1,1-.537.222A.731.731,0,0,1,173.985,334.193Z" transform="translate(-37.923 -16.996)"/>
    <path id="Path_22" data-name="Path 22" d="M212.139,343.068v.191h-3.663v-.191h.232a.977.977,0,0,0,.491-.108.468.468,0,0,0,.206-.248,2.1,2.1,0,0,0,.057-.651v-4.608a2.263,2.263,0,0,0-.057-.672.512.512,0,0,0-.23-.235.925.925,0,0,0-.468-.1h-.232v-.192h3.663v.192h-.232a.968.968,0,0,0-.49.108.5.5,0,0,0-.213.249,2.14,2.14,0,0,0-.057.651v4.608a2.219,2.219,0,0,0,.06.671.539.539,0,0,0,.232.235.929.929,0,0,0,.468.1Zm-1.833-8.875a.758.758,0,1,1-.537.222A.731.731,0,0,1,210.305,334.193Z" transform="translate(-48.512 -16.996)"/>
  </g>
</svg>
